<svg xmlns="http://www.w3.org/2000/svg" viewBox="0 0 200 200" width="200" height="200" fill="none" aria-hidden="true">
  <defs>
    <linearGradient id="sMain" x1="0.28" y1="0" x2="0.78" y2="1">
      <stop offset="0" stop-color="#c5d3e2"/>
      <stop offset="0.42" stop-color="#8fa3b8"/>
      <stop offset="0.72" stop-color="#7d90a6"/>
      <stop offset="1" stop-color="#5e7288"/>
    </linearGradient>
    <linearGradient id="sSmall" x1="0.2" y1="0" x2="0.85" y2="1">
      <stop offset="0" stop-color="#d0deea"/>
      <stop offset="0.5" stop-color="#93a8be"/>
      <stop offset="1" stop-color="#667c94"/>
    </linearGradient>
    <linearGradient id="sMid" x1="0.15" y1="0.05" x2="0.9" y2="1">
      <stop offset="0" stop-color="#d4d8e6"/>
      <stop offset="0.48" stop-color="#96a4ba"/>
      <stop offset="1" stop-color="#667488"/>
    </linearGradient>
  </defs>
  <!-- Three soft four-point glints, arranged like the reference cluster. Silver, not yellow. -->
  <path fill="url(#sMain)" d="M 68.00 64.00 Q 74.80 105.60 102.00 116.00 Q 74.80 126.40 68.00 168.00 Q 61.20 126.40 34.00 116.00 Q 61.20 105.60 68.00 64.00 Z"/>
  <path fill="url(#sSmall)" d="M 122.00 18.00 Q 124.80 35.60 136.00 40.00 Q 124.80 44.40 122.00 62.00 Q 119.20 44.40 108.00 40.00 Q 119.20 35.60 122.00 18.00 Z"/>
  <path fill="url(#sMid)" d="M 156.00 104.00 Q 160.40 131.20 178.00 138.00 Q 160.40 144.80 156.00 172.00 Q 151.60 144.80 134.00 138.00 Q 151.60 131.20 156.00 104.00 Z"/>
</svg>
